<svg width="414" height="348" viewBox="0 0 414 348" fill="none" xmlns="http://www.w3.org/2000/svg">
<path fill-rule="evenodd" clip-rule="evenodd" d="M4.91996 331.504L206.961 0L409.002 331.504C409.453 332.406 410.07 333.371 410.715 334.379C412.874 337.752 415.342 341.61 412.925 345.235C409.002 351.12 344.271 347.197 314.847 337.389C306.838 334.719 298.392 331.177 289.471 327.436C265.62 317.433 238.368 306.004 206.961 306.004C175.554 306.004 148.303 317.433 124.451 327.436C115.53 331.177 107.084 334.719 99.0749 337.389C69.6515 347.197 4.91996 351.12 0.996836 345.235C-1.41985 341.61 1.04836 337.752 3.20699 334.379C3.85173 333.371 4.46886 332.406 4.91996 331.504ZM152.037 223.618C152.037 262.849 188.653 273.965 206.961 274.619C225.269 273.965 261.885 262.849 261.885 223.618C261.885 199.03 250.942 181.737 239.608 163.825C227.434 144.585 214.807 124.631 214.807 94.155C214.807 80.4241 208.922 80.4241 206.961 80.4241C204.999 80.4241 199.115 80.4241 199.115 94.155C199.115 124.631 186.488 144.585 174.314 163.825C162.98 181.736 152.037 199.03 152.037 223.618Z" fill="#0055FF"/>
</svg>
